PathFileType  4	(X/Y/Z) C:\Users\hpl\Documents\MyRepositories\mocap-processing\Data\treadmill\running\
DataRate	CameraRate	NumFrames	NumMarkers	Units	OrigDataRate	OrigDataStartFrame	OrigNumFrames
  200.0		  200.0		    4		     46		 mm	  200.0	      491	    785
Frame#	Time	r_knee			r_shank_antsup			r_ankle			r_calc			r_5meta			r_toe			L_knee			L_shank_antsup			L_ankle			L_calc			L_5meta			L_toe			r_sh2			r_sh3			r_sh4			L_sh2			L_sh3			r_thigh1			r_thigh2			r_thigh3			r_thigh4			r_thigh5			L_thigh1			L_thigh2			L_thigh3			L_thigh4			r.ASIS			r.PSIS			L.ASIS			L.PSIS			C7			R_Shoulder			L_Shoulder			Sternum			R_humerus			R_elbow_med			R_elbow_lat			R_forearm			R_wrist_radius			R_wrist_ulna			L_humerus			L_elbow_med			L_elbow_lat			L_forearm			L_wrist_radius			L_wrist_ulna			
		X1	Y1	Z1	X2	Y2	Z2	X3	Y3	Z3	X4	Y4	Z4	X5	Y5	Z5	X6	Y6	Z6	X7	Y7	Z7	X8	Y8	Z8	X9	Y9	Z9	X10	Y10	Z10	X11	Y11	Z11	X12	Y12	Z12	X13	Y13	Z13	X14	Y14	Z14	X15	Y15	Z15	X16	Y16	Z16	X17	Y17	Z17	X18	Y18	Z18	X19	Y19	Z19	X20	Y20	Z20	X21	Y21	Z21	X22	Y22	Z22	X23	Y23	Z23	X24	Y24	Z24	X25	Y25	Z25	X26	Y26	Z26	X27	Y27	Z27	X28	Y28	Z28	X29	Y29	Z29	X30	Y30	Z30	X31	Y31	Z31	X32	Y32	Z32	X33	Y33	Z33	X34	Y34	Z34	X35	Y35	Z35	X36	Y36	Z36	X37	Y37	Z37	X38	Y38	Z38	X39	Y39	Z39	X40	Y40	Z40	X41	Y41	Z41	X42	Y42	Z42	X43	Y43	Z43	X44	Y44	Z44	X45	Y45	Z45	X46	Y46	Z46	

491	2.45000	1009.786	563.888	-132.789	1054.583	455.771	-131.028	1103.285	126.024	-201.744	1047.513	102.507	-284.428	1227.003	51.900	-175.788	1270.894	106.006	-212.082	655.449	525.067	-419.930	540.992	477.612	-415.190	231.543	498.174	-395.035	228.330	572.849	-364.352	120.331	376.489	-355.969	143.211	361.061	-281.018	1079.382	340.669	-150.311	982.265	438.334	-127.813	999.036	328.534	-162.972	540.445	560.169	-448.623	419.050	551.494	-430.379	984.366	790.920	-103.192	1028.187	687.767	-128.481	1005.959	638.517	-106.505	890.902	739.928	-69.759	937.715	640.454	-111.214	831.475	694.245	-422.675	766.911	568.243	-404.229	730.111	740.141	-465.935	671.679	617.515	-431.623	886.803	1013.328	-137.502	690.602	1067.971	-230.679	907.083	1009.329	-398.123	695.890	1068.982	-336.323	810.374	1553.879	-287.290	786.533	1526.616	-100.113	902.726	1526.753	-446.868	953.300	1454.478	-237.026	640.390	1366.520	-47.495	520.689	1303.605	-146.524	504.877	1339.087	-65.584	613.037	1204.183	-22.383	679.181	1106.954	-11.713	631.148	1087.548	0.794	869.904	1302.600	-567.433	733.393	1198.890	-551.794	793.908	1238.661	-620.469	922.979	1189.749	-528.009	984.253	1203.592	-430.222	989.475	1138.138	-460.463
492	2.45500	1007.308	560.709	-132.560	1050.482	450.484	-131.337	1091.910	120.432	-203.233	1035.576	98.203	-285.591	1214.185	43.621	-177.755	1259.344	96.739	-214.592	664.628	519.760	-421.606	550.660	473.011	-415.504	241.009	510.005	-395.465	239.874	584.207	-362.885	126.856	390.310	-359.053	149.523	372.997	-284.205	1072.608	334.840	-151.239	977.836	434.673	-128.356	991.962	324.847	-164.137	551.720	559.236	-448.926	430.304	554.318	-429.692	984.704	789.602	-100.044	1026.960	685.595	-129.134	1004.960	636.448	-108.143	890.237	737.998	-70.999	936.707	638.152	-111.479	836.831	690.940	-423.154	778.153	564.675	-406.257	734.779	734.786	-466.756	679.016	610.475	-432.994	886.878	1010.927	-137.465	690.719	1064.714	-230.465	906.890	1006.634	-398.140	695.659	1065.756	-336.126	810.753	1550.786	-286.430	787.847	1523.049	-99.030	903.133	1523.886	-446.411	953.903	1451.241	-236.998	643.074	1360.950	-45.900	523.625	1296.588	-144.543	507.589	1332.016	-63.579	617.448	1198.019	-20.675	684.800	1101.596	-10.681	637.091	1081.653	1.936	868.397	1299.644	-567.421	731.272	1196.761	-550.820	791.675	1236.168	-619.679	920.892	1184.856	-528.566	983.396	1197.475	-431.223	987.120	1132.104	-461.749
493	2.46000	1004.837	557.026	-132.233	1046.591	445.145	-131.410	1079.413	114.676	-204.590	1022.216	94.474	-282.387	1199.863	34.695	-179.790	1245.998	86.720	-217.191	674.073	513.152	-422.487	560.878	468.063	-416.491	251.354	521.661	-395.999	251.993	594.910	-361.029	134.875	402.862	-362.368	157.087	384.962	-289.144	1065.611	329.037	-151.777	973.468	431.375	-128.923	984.780	321.195	-164.426	563.256	558.594	-449.369	441.747	558.189	-429.926	985.281	787.384	-99.054	1026.274	683.260	-129.744	1003.939	634.060	-109.472	889.698	736.089	-72.181	935.746	635.744	-111.647	842.401	687.503	-423.756	786.637	559.661	-407.439	738.889	729.040	-468.063	686.540	603.293	-434.455	886.945	1008.261	-137.408	690.549	1061.566	-230.392	906.825	1003.645	-398.193	695.605	1062.522	-336.074	810.953	1547.279	-285.497	789.269	1519.007	-98.094	903.259	1520.934	-446.379	954.678	1447.633	-237.152	645.700	1355.155	-44.137	526.397	1289.396	-142.382	510.816	1324.404	-61.026	622.220	1191.551	-18.861	690.663	1095.903	-9.340	643.264	1075.405	3.136	866.562	1296.423	-567.283	729.041	1194.661	-549.975	789.352	1233.567	-618.991	918.657	1179.673	-529.215	982.511	1191.027	-432.338	984.663	1125.597	-463.208
494	2.46500	1002.380	552.889	-131.846	1042.418	439.677	-131.381	1065.817	108.798	-205.125	1007.118	89.265	-286.558	1184.882	26.118	-181.950	1231.673	76.193	-220.508	683.957	506.911	-424.225	567.513	471.422	-423.371	262.708	532.243	-395.934	264.840	604.533	-359.076	143.987	415.443	-366.444	165.403	393.493	-292.214	1058.418	323.122	-152.393	969.157	427.910	-129.059	977.271	317.490	-164.408	575.226	557.915	-449.314	453.606	561.215	-429.733	985.875	784.069	-99.812	1025.929	680.567	-130.105	1003.036	631.321	-110.419	889.303	734.024	-73.835	934.959	633.096	-111.872	848.209	683.971	-424.492	796.002	554.550	-409.126	744.512	723.010	-468.823	694.744	596.092	-435.696	886.982	1005.363	-137.230	690.645	1057.958	-230.310	906.531	1000.393	-398.478	695.344	1058.919	-336.078	811.088	1543.538	-284.622	790.216	1515.057	-96.772	903.183	1517.673	-445.193	955.307	1443.916	-237.255	648.525	1348.896	-42.242	529.510	1281.532	-139.707	513.816	1316.420	-58.416	627.044	1184.711	-16.782	696.947	1089.998	-8.117	649.731	1069.049	4.669	864.304	1292.887	-566.992	726.575	1192.255	-548.916	786.718	1230.760	-618.236	916.021	1174.152	-529.967	980.825	1183.999	-433.656	981.993	1118.853	-464.841
